HIERARCHY
ROOT Hips
{
	OFFSET 0.000000 0.000000 0.000000
	CHANNELS 6 Xposition Yposition Zposition Zrotation Yrotation Xrotation 
	JOINT LHipJoint
	{
		OFFSET 0.000000 0.000000 0.000000
		CHANNELS 3 Zrotation Yrotation Xrotation
		JOINT LeftUpLeg
		{
			OFFSET 1.363060 -1.794630 0.839290
			CHANNELS 3 Zrotation Yrotation Xrotation
			JOINT LeftLeg
			{
				OFFSET 2.448110 -6.726130 0.000000
				CHANNELS 3 Zrotation Yrotation Xrotation
				JOINT LeftFoot
				{
					OFFSET 2.562200 -7.039590 0.000000
					CHANNELS 3 Zrotation Yrotation Xrotation
					JOINT LeftToeBase
					{
						OFFSET 0.157640 -0.433110 2.322550
						CHANNELS 3 Zrotation Yrotation Xrotation
						End Site
						{
							OFFSET 0.000000 0.000000 0.000000
						}
					}
				}
			}
		}
	}
	JOINT RHipJoint
	{
		OFFSET 0.000000 0.000000 0.000000
		CHANNELS 3 Zrotation Yrotation Xrotation
		JOINT RightUpLeg
		{
			OFFSET -1.305520 -1.794630 0.839290
			CHANNELS 3 Zrotation Yrotation Xrotation
			JOINT RightLeg
			{
				OFFSET -2.542530 -6.985550 0.000000
				CHANNELS 3 Zrotation Yrotation Xrotation
				JOINT RightFoot
				{
					OFFSET -2.568260 -7.056230 0.000000
					CHANNELS 3 Zrotation Yrotation Xrotation
					JOINT RightToeBase
					{
						OFFSET -0.164730 -0.452590 2.363150
						CHANNELS 3 Zrotation Yrotation Xrotation
						End Site
						{
							OFFSET 0.000000 0.000000 0.000000
						}
					}
				}
			}
		}
	}
	JOINT LowerBack
	{
		OFFSET 0.000000 0.000000 0.000000
		CHANNELS 3 Zrotation Yrotation Xrotation
		JOINT Spine
		{
			OFFSET 0.028270 2.035590 -0.193380
			CHANNELS 3 Zrotation Yrotation Xrotation
			JOINT Spine1
			{
				OFFSET 0.056720 2.048850 -0.042750
				CHANNELS 3 Zrotation Yrotation Xrotation
				JOINT Neck
				{
					OFFSET 0.000000 0.000000 0.000000
					CHANNELS 3 Zrotation Yrotation Xrotation
					JOINT Neck1
					{
						OFFSET -0.054170 1.746240 0.172020
						CHANNELS 3 Zrotation Yrotation Xrotation
						JOINT Head
						{
							OFFSET 0.104070 1.761360 -0.123970
							CHANNELS 3 Zrotation Yrotation Xrotation
							End Site
							{
								OFFSET 0.000000 0.000000 0.000000
							}
						}
					}
				}
				JOINT LeftShoulder
				{
					OFFSET 0.000000 0.000000 0.000000
					CHANNELS 3 Zrotation Yrotation Xrotation
					JOINT LeftArm
					{
						OFFSET 3.362410 1.200890 -0.311210
						CHANNELS 3 Zrotation Yrotation Xrotation
						JOINT LeftForeArm
						{
							OFFSET 4.983000 -0.000000 -0.000000
							CHANNELS 3 Zrotation Yrotation Xrotation
							JOINT LeftHand
							{
								OFFSET 3.483560 -0.000000 -0.000000
								CHANNELS 3 Zrotation Yrotation Xrotation
								JOINT LeftFingerBase
								{
									OFFSET 0.000000 0.000000 0.000000
									CHANNELS 3 Zrotation Yrotation Xrotation
									JOINT LeftHandIndex1
									{
										OFFSET 0.715260 -0.000000 -0.000000
										CHANNELS 3 Zrotation Yrotation Xrotation
										End Site
										{
											OFFSET 0.000000 0.000000 0.000000
										}
									}
								}
								JOINT LThumb
								{
									OFFSET 0.000000 0.000000 0.000000
									CHANNELS 3 Zrotation Yrotation Xrotation
									End Site
									{
										OFFSET 0.000000 0.000000 0.000000
									}
								}
							}
						}
					}
				}
				JOINT RightShoulder
				{
					OFFSET 0.000000 0.000000 0.000000
					CHANNELS 3 Zrotation Yrotation Xrotation
					JOINT RightArm
					{
						OFFSET -3.136600 1.374050 -0.404650
						CHANNELS 3 Zrotation Yrotation Xrotation
						JOINT RightForeArm
						{
							OFFSET -5.241900 -0.000000 -0.000000
							CHANNELS 3 Zrotation Yrotation Xrotation
							JOINT RightHand
							{
								OFFSET -3.444170 -0.000000 -0.000000
								CHANNELS 3 Zrotation Yrotation Xrotation
								JOINT RightFingerBase
								{
									OFFSET 0.000000 0.000000 0.000000
									CHANNELS 3 Zrotation Yrotation Xrotation
									JOINT RightHandIndex1
									{
										OFFSET -0.622530 -0.000000 -0.000000
										CHANNELS 3 Zrotation Yrotation Xrotation
										End Site
										{
											OFFSET 0.000000 0.000000 0.000000
										}
									}
								}
								JOINT RThumb
								{
									OFFSET 0.000000 0.000000 0.000000
									CHANNELS 3 Zrotation Yrotation Xrotation
									End Site
									{
										OFFSET 0.000000 0.000000 0.000000
									}
								}
							}
						}
					}
				}
			}
		}
	}
}
MOTION
Frames: 9
Frame Time: 0.008333
-0.916644 18.156983 5.704508 -4.296388 -3.063146 0.565812 -0.361385 4.565102 3.924829 -9.655792 -6.471304 13.795538 -1.774242 -5.818043 -13.260425 -6.270752 23.907277 -0.221996 0.134300 -2.362200 -6.507900 -1.236330 -4.161622 2.879078 -0.216794 2.702132 -5.983554 0.898463 -0.018280 1.327194 0.167977 -4.439475 13.467838 0.000000 0.000000 0.000000 5.797499 1.966241 -1.223261 -0.095086 2.253849 10.518775 -4.150336 1.293926 -10.745881 -0.841096 -2.205208 -20.977104 3.202595 -2.667419 22.566665 0.194800 -0.809100 8.313900 1.739653 -8.127608 0.540254 -92.453433 9.969602 22.363585 22.449382 -31.648599 -6.075268 0.638982 0.201162 13.860362 1.755321 -25.295340 -0.512900 -7.125000 0.000000 0.000000 -17.171300 5.257300 16.291600 -3.337585 9.827634 3.126554 98.656418 -14.335719 11.373265 -32.034805 39.790718 -9.802662 1.445522 -2.377046 14.358110 -3.253857 -30.309133 2.519200 7.125000 0.000000 0.000000 27.266400 -56.220700 -7.917600 
-0.916544 18.156983 5.704909 -4.319897 -3.108270 0.540485 -0.354875 4.567725 3.924114 -9.636850 -6.380870 13.800697 -1.772380 -5.819499 -13.257453 -6.263655 23.886323 -0.196526 0.141500 -2.424300 -6.679900 -1.232545 -4.161288 2.879435 -0.215944 2.701917 -5.984100 0.898384 -0.018711 1.327012 0.167833 -4.439941 13.467751 0.000000 0.000000 0.000000 5.795499 1.971539 -1.201529 -0.041524 2.262947 10.511186 -4.164321 1.297568 -10.752074 -0.816251 -2.195519 -20.933814 3.160572 -2.651629 22.547064 0.183600 -0.805500 8.302100 1.730282 -8.126866 0.539473 -92.459327 9.984428 22.337774 22.457416 -31.656952 -6.079695 0.639417 0.199294 13.882732 1.706959 -25.330842 -0.492200 -7.125000 0.000000 0.000000 -17.199300 5.228300 16.330700 -3.344699 9.828848 3.128256 98.656074 -14.347458 11.389316 -32.029391 39.790346 -9.805103 1.446862 -2.378474 14.396567 -3.211088 -30.400278 2.507800 7.125000 0.000000 0.000000 27.372900 -56.293900 -8.001800 
-0.916043 18.155981 5.703807 -4.329139 -3.095468 0.534737 -0.354713 4.566170 3.917978 -9.626956 -6.328742 13.769465 -1.772020 -5.810377 -13.233285 -6.248576 23.843947 -0.130482 0.147700 -2.476700 -6.824900 -1.231689 -4.159304 2.875044 -0.215084 2.701571 -5.985390 0.898381 -0.019508 1.326756 0.167469 -4.440712 13.467406 0.000000 0.000000 0.000000 5.812232 1.966919 -1.154417 -0.033114 2.261816 10.444734 -4.180108 1.294390 -10.759501 -0.841312 -2.199491 -20.853104 3.208728 -2.663143 22.492479 0.197100 -0.808800 8.277500 1.726323 -8.129232 0.542812 -92.450757 10.028585 22.378581 22.501751 -31.701728 -6.096924 0.636663 0.199608 13.824406 1.629880 -25.229026 -0.458100 -7.125000 0.000000 0.000000 -17.245400 5.331900 16.343600 -3.338648 9.828348 3.131852 98.659141 -14.364030 11.384820 -32.009124 39.776656 -9.802685 1.445279 -2.381459 14.416595 -3.237155 -30.512208 2.529100 7.125000 0.000000 0.000000 27.427900 -56.394900 -8.088600 
-0.915943 18.155480 5.702906 -4.305627 -3.083061 0.533320 -0.354506 4.564217 3.915729 -9.653898 -6.340505 13.766886 -1.773807 -5.808034 -13.226445 -6.252587 23.856531 -0.135424 0.141200 -2.421600 -6.672300 -1.228938 -4.159014 2.875348 -0.214575 2.701372 -5.985736 0.898348 -0.019815 1.326603 0.167282 -4.441052 13.467328 0.000000 0.000000 0.000000 5.769883 1.964110 -1.145740 -0.008168 2.256793 10.435222 -4.168836 1.294835 -10.763022 -0.899596 -2.208847 -20.841999 3.291893 -2.680110 22.475611 0.222900 -0.811700 8.273000 1.724548 -8.129253 0.543910 -92.439390 10.073773 22.502269 22.569905 -31.771293 -6.124923 0.634072 0.203991 13.730919 1.655688 -25.108869 -0.468600 -7.125000 0.000000 0.000000 -17.231100 5.442100 16.291000 -3.337151 9.827398 3.131902 98.651448 -14.366201 11.361395 -32.003506 39.774540 -9.804840 1.449362 -2.381447 14.429120 -3.140136 -30.606705 2.492500 7.125000 0.000000 0.000000 27.591200 -56.462400 -8.188400 
-0.916043 18.155881 5.702305 -4.260638 -3.086566 0.533754 -0.357489 4.561431 3.914267 -9.701271 -6.364545 13.779811 -1.775900 -5.809589 -13.227653 -6.260626 23.875743 -0.186747 0.135600 -2.373700 -6.539600 -1.228704 -4.159069 2.875319 -0.214513 2.701259 -5.985785 0.898361 -0.019916 1.326530 0.167186 -4.441169 13.467289 0.000000 0.000000 0.000000 5.716306 1.966656 -1.133731 -0.010525 2.258691 10.434266 -4.143020 1.299863 -10.773106 -0.943295 -2.208687 -20.865053 3.360720 -2.683344 22.476960 0.245200 -0.808100 8.276800 1.724902 -8.127341 0.545723 -92.412041 10.117362 22.669262 22.638894 -31.841309 -6.154167 0.632479 0.209480 13.598988 1.709544 -25.019613 -0.491100 -7.125000 0.000000 0.000000 -17.200200 5.519900 16.232200 -3.334334 9.826349 3.132048 98.636557 -14.367326 11.352191 -32.003019 39.775314 -9.805433 1.463808 -2.377033 14.356751 -2.852324 -30.723957 2.368600 7.125000 0.000000 0.000000 27.958200 -56.519000 -8.349000 
-0.915141 18.155681 5.701503 -4.280647 -3.097771 0.538774 -0.351654 4.562116 3.911497 -9.685401 -6.324776 13.762640 -1.774196 -5.810943 -13.229612 -6.250486 23.847140 -0.152012 0.145900 -2.461800 -6.783800 -1.223576 -4.157433 2.874372 -0.213470 2.701027 -5.986570 0.898267 -0.020455 1.326323 0.166933 -4.441741 13.467156 0.000000 0.000000 0.000000 5.721825 1.963866 -1.106250 0.048949 2.258059 10.408279 -4.166787 1.297394 -10.781165 -0.990013 -2.205638 -20.861665 3.433985 -2.682264 22.470413 0.268300 -0.802100 8.274900 1.718717 -8.124405 0.546465 -92.406064 10.121730 22.736731 22.651809 -31.855077 -6.159081 0.631623 0.211599 13.496980 1.711743 -24.977073 -0.491500 -7.125000 0.000000 0.000000 -17.199500 5.559400 16.217900 -3.334288 9.824538 3.138021 98.611836 -14.373846 11.358398 -31.995495 39.792322 -9.838003 1.478889 -2.381116 14.272221 -2.583756 -31.355176 2.290700 7.125000 0.000000 0.000000 28.694500 -57.019300 -8.951800 
-0.913939 18.154879 5.700402 -4.320504 -3.105054 0.544871 -0.342543 4.563892 3.910793 -9.654996 -6.349488 13.767756 -1.773704 -5.812049 -13.236140 -6.254263 23.858307 -0.162667 0.150700 -2.501400 -6.893600 -1.217551 -4.155615 2.873530 -0.212251 2.700802 -5.987410 0.898144 -0.021037 1.326102 0.166668 -4.442365 13.467030 0.000000 0.000000 0.000000 5.742762 1.953304 -1.086158 0.120414 2.247283 10.383726 -4.196571 1.288781 -10.785069 -0.994139 -2.199145 -20.856555 3.419223 -2.668782 22.470404 0.266200 -0.797300 8.273000 1.709577 -8.120835 0.545375 -92.426212 10.094897 22.686822 22.608304 -31.811160 -6.139984 0.632201 0.210610 13.513174 1.720835 -25.006076 -0.495600 -7.125000 0.000000 0.000000 -17.193900 5.531900 16.221600 -3.337502 9.822518 3.147060 98.589068 -14.381744 11.362867 -31.980777 39.824091 -9.897088 1.484786 -2.394924 14.245521 -2.484003 -32.347225 2.314800 7.125000 0.000000 0.000000 29.575100 -57.849400 -9.867700 
-0.913439 18.154679 5.699800 -4.322124 -3.111354 0.534343 -0.342247 4.565258 3.914943 -9.661010 -6.447759 13.826108 -1.775271 -5.816077 -13.252098 -6.277498 23.923673 -0.260000 0.142800 -2.435400 -6.710500 -1.220448 -4.155689 2.873029 -0.212803 2.701037 -5.986921 0.898169 -0.020662 1.326267 0.166853 -4.441969 13.467145 0.000000 0.000000 0.000000 5.768253 1.952429 -1.072255 0.096459 2.248695 10.397704 -4.200302 1.287543 -10.795591 -0.946476 -2.190423 -20.867289 3.346487 -2.652521 22.458700 0.244300 -0.795100 8.269900 1.711521 -8.118201 0.543251 -92.427732 10.062566 22.634693 22.550591 -31.752948 -6.115599 0.634045 0.208670 13.609554 1.760284 -25.082336 -0.513300 -7.125000 0.000000 0.000000 -17.169900 5.456800 16.222300 -3.338468 9.819960 3.149366 98.597165 -14.377005 11.340717 -31.961993 39.838991 -9.928425 1.482738 -2.405212 14.262188 -2.512259 -32.907196 2.368400 7.125000 0.000000 0.000000 30.009000 -58.327800 -10.383700 
-0.913238 18.154779 5.700201 -4.304909 -3.124281 0.524305 -0.346064 4.565080 3.916125 -9.683288 -6.488554 13.865247 -1.776206 -5.819822 -13.263923 -6.290965 23.966218 -0.300137 0.140200 -2.413400 -6.649600 -1.225354 -4.156008 2.871742 -0.213570 2.701242 -5.986508 0.898245 -0.020310 1.326435 0.167022 -4.441571 13.467199 0.000000 0.000000 0.000000 5.786521 1.959945 -1.057077 0.048178 2.260782 10.401175 -4.196097 1.292548 -10.804089 -0.920061 -2.187902 -20.864796 3.319212 -2.649810 22.441858 0.234700 -0.795800 8.264600 1.716512 -8.118153 0.542603 -92.425711 10.039594 22.593449 22.506522 -31.708872 -6.097999 0.636308 0.206097 13.695748 1.771755 -25.182023 -0.519100 -7.125000 0.000000 0.000000 -17.162400 5.361900 16.246700 -3.335177 9.818990 3.149418 98.612773 -14.383661 11.318717 -31.960363 39.842183 -9.933471 1.473472 -2.409293 14.287193 -2.716204 -32.917687 2.470100 7.125000 0.000000 0.000000 29.815100 -58.371100 -10.340200 
